<svg width="84" height="19" viewBox="0 0 84 19" fill="none" xmlns="http://www.w3.org/2000/svg">
<path d="M8.00462 4.75C9.23035 4.75 10.4059 5.25044 11.2726 6.14124C12.1393 7.03204 12.6262 8.24022 12.6262 9.5C12.6262 10.7598 12.1393 11.968 11.2726 12.8588C10.4059 13.7496 9.23035 14.25 8.00462 14.25C6.7789 14.25 5.60337 13.7496 4.73665 12.8588C3.86993 11.968 3.38302 10.7598 3.38302 9.5C3.38302 8.24022 3.86993 7.03204 4.73665 6.14124C5.60337 5.25044 6.7789 4.75 8.00462 4.75ZM8.00462 6.65C7.26919 6.65 6.56387 6.95027 6.04384 7.48475C5.52381 8.01922 5.23166 8.74413 5.23166 9.5C5.23166 10.2559 5.52381 10.9808 6.04384 11.5153C6.56387 12.0497 7.26919 12.35 8.00462 12.35C8.74006 12.35 9.44537 12.0497 9.9654 11.5153C10.4854 10.9808 10.7776 10.2559 10.7776 9.5C10.7776 8.74413 10.4854 8.01922 9.9654 7.48475C9.44537 6.95027 8.74006 6.65 8.00462 6.65ZM8.00462 0L10.2137 3.249C9.52975 2.9925 8.78105 2.85 8.00462 2.85C7.22819 2.85 6.47949 2.9925 5.79549 3.249L8.00462 0ZM0 4.75L3.84518 4.4175C3.29058 4.902 2.79145 5.491 2.40324 6.175C1.99653 6.878 1.76545 7.6 1.63605 8.3505L0 4.75ZM0.0184864 14.25L1.64529 10.6685C1.7747 11.4 2.02426 12.141 2.41248 12.825C2.80069 13.528 3.29983 14.117 3.84518 14.6015L0.0184864 14.25ZM16 4.75L14.364 8.3505C14.2345 7.6 13.985 6.8685 13.5968 6.175C13.2085 5.491 12.7187 4.8925 12.1641 4.408L16 4.75ZM15.9908 14.25L12.1641 14.592C12.7094 14.1075 13.1993 13.509 13.5875 12.825C13.9757 12.1315 14.2253 11.4 14.3547 10.6495L15.9908 14.25ZM8.00462 19L5.77701 15.732C6.46101 15.9885 7.20971 16.15 8.00462 16.15C8.76257 16.15 9.51126 15.9885 10.1953 15.732L8.00462 19Z" fill="#C6C5C0"/>
<path d="M79.3125 3.0675L77.415 4.5225L78.0975 6.8175L76.125 5.46L74.1525 6.8175L74.835 4.5225L72.9375 3.0675L75.33 3L76.125 0.75L76.92 3L79.3125 3.0675ZM81.9375 8.25L80.7075 9.1875L81.15 10.6725L79.875 9.795L78.6 10.6725L79.0425 9.1875L77.8125 8.25L79.3575 8.2125L79.875 6.75L80.3925 8.2125L81.9375 8.25ZM80.2275 11.9625C80.85 11.9025 81.5175 12.7875 81.12 13.35C80.88 13.6875 80.625 14.0025 80.31 14.3025C77.3775 17.25 72.63 17.25 69.705 14.3025C66.7725 11.3775 66.7725 6.6225 69.705 3.6975C70.005 3.3975 70.32 3.1275 70.6575 2.8875C71.22 2.49 72.105 3.1575 72.045 3.78C71.8425 5.925 72.5625 8.1525 74.2125 9.795C75.855 11.445 78.075 12.165 80.2275 11.9625ZM78.9975 13.4775C76.875 13.3575 74.775 12.48 73.1475 10.875C71.52 9.2325 70.65 7.125 70.53 5.01C68.4225 7.365 68.505 10.98 70.7625 13.245C73.0275 15.5025 76.6425 15.585 78.9975 13.4775Z" fill="#C6C5C0"/>
<path fill-rule="evenodd" clip-rule="evenodd" d="M28 15.9811V16H28.5H53.5H54V15.9811C57.3562 15.7257 60 12.9216 60 9.5C60 6.07839 57.3562 3.27426 54 3.01894V3H53.5H28.5H28V3.01894C24.6438 3.27426 22 6.07839 22 9.5C22 12.9216 24.6438 15.7257 28 15.9811Z" fill="#D9D9D9"/>
<path d="M61 9.50002C61 14.7467 56.7467 19 51.5 19C46.2533 19 42 14.7467 42 9.50002C42 4.25331 46.2533 1.60479e-05 51.5 1.60479e-05C56.7467 1.60479e-05 61 4.25331 61 9.50002Z" fill="#994C09"/>
</svg>
