<svg width="121" height="39" viewBox="0 0 121 39" fill="none" xmlns="http://www.w3.org/2000/svg">
<rect width="121" height="39" rx="8" fill="#869909"/>
<path fill-rule="evenodd" clip-rule="evenodd" d="M32.0087 8.99996C26.2197 8.99996 21.5399 13.8125 21.5399 19.7662C21.5399 24.5253 24.5384 28.5538 28.6982 29.9796C29.2182 30.0868 29.4087 29.748 29.4087 29.4629C29.4087 29.2133 29.3916 28.3578 29.3916 27.4664C26.4794 28.1082 25.873 26.183 25.873 26.183C25.405 24.9352 24.7116 24.6146 24.7116 24.6146C23.7584 23.955 24.781 23.955 24.781 23.955C25.8383 24.0263 26.3931 25.0601 26.3931 25.0601C27.3289 26.6999 28.8368 26.2366 29.4434 25.9513C29.53 25.2561 29.8075 24.7749 30.1022 24.5076C27.7795 24.258 25.3358 23.3311 25.3358 19.1957C25.3358 18.0192 25.7515 17.0567 26.4102 16.3082C26.3063 16.0409 25.9422 14.9355 26.5144 13.4561C26.5144 13.4561 27.3983 13.1709 29.3914 14.5612C30.2447 14.3256 31.1247 14.2057 32.0087 14.2047C32.8926 14.2047 33.7937 14.3296 34.6257 14.5612C36.619 13.1709 37.5029 13.4561 37.5029 13.4561C38.0751 14.9355 37.7108 16.0409 37.6069 16.3082C38.2829 17.0567 38.6815 18.0192 38.6815 19.1957C38.6815 23.3311 36.2378 24.2401 33.8978 24.5076C34.2792 24.8462 34.6084 25.4878 34.6084 26.5039C34.6084 27.9476 34.5912 29.1064 34.5912 29.4627C34.5912 29.748 34.7819 30.0868 35.3018 29.9798C39.4615 28.5536 42.46 24.5253 42.46 19.7662C42.4772 13.8125 37.7802 8.99996 32.0087 8.99996Z" fill="white"/>
<path d="M56.0708 14.018C57.2748 14.018 58.2734 14.3167 59.0668 14.914C59.8601 15.502 60.3688 16.3 60.5928 17.308H58.5208C58.3248 16.86 58.0121 16.5053 57.5828 16.244C57.1628 15.9733 56.6634 15.838 56.0848 15.838C55.5154 15.838 55.0114 15.9687 54.5728 16.23C54.1341 16.4913 53.7934 16.8647 53.5508 17.35C53.3081 17.8353 53.1868 18.4047 53.1868 19.058C53.1868 20.094 53.4621 20.9013 54.0128 21.48C54.5728 22.0587 55.3334 22.348 56.2948 22.348C57.0041 22.348 57.6108 22.138 58.1148 21.718C58.6281 21.298 58.9594 20.7147 59.1088 19.968H55.7628V18.554H60.7608V20.458C60.6208 21.1113 60.3454 21.7133 59.9348 22.264C59.5334 22.8147 59.0014 23.258 58.3388 23.594C57.6854 23.9207 56.9341 24.084 56.0848 24.084C55.1141 24.084 54.2554 23.874 53.5088 23.454C52.7714 23.0247 52.1974 22.432 51.7868 21.676C51.3854 20.9107 51.1848 20.038 51.1848 19.058C51.1848 18.078 51.3854 17.21 51.7868 16.454C52.1974 15.6887 52.7714 15.0913 53.5088 14.662C54.2461 14.2327 55.1001 14.018 56.0708 14.018ZM62.0149 14.018C62.0149 13.7007 62.1269 13.444 62.3509 13.248C62.5749 13.0427 62.8689 12.94 63.2329 12.94C63.5969 12.94 63.8909 13.0427 64.1149 13.248C64.3389 13.444 64.4509 13.7007 64.4509 14.018C64.4509 14.326 64.3389 14.5827 64.1149 14.788C63.8909 14.984 63.5969 15.082 63.2329 15.082C62.8689 15.082 62.5749 14.984 62.3509 14.788C62.1269 14.5827 62.0149 14.326 62.0149 14.018ZM64.2129 16.244V24H62.2389V16.244H64.2129ZM70.1426 22.306V24H69.1066C68.2386 24 67.5713 23.79 67.1046 23.37C66.6473 22.95 66.4186 22.25 66.4186 21.27V17.91H65.3406V16.244H66.4186V14.326H68.3926V16.244H70.1286V17.91H68.3926V21.298C68.3926 21.6713 68.4673 21.9327 68.6166 22.082C68.766 22.2313 69.018 22.306 69.3726 22.306H70.1426ZM79.7531 14.116V24H77.7651V19.702H73.5371V24H71.5631V14.116H73.5371V18.12H77.7651V14.116H79.7531ZM88.9636 16.244V24H86.9896V22.432C86.7842 22.9547 86.4436 23.3653 85.9676 23.664C85.5009 23.9533 84.9596 24.098 84.3436 24.098C83.4476 24.098 82.7336 23.804 82.2016 23.216C81.6696 22.628 81.4036 21.8067 81.4036 20.752V16.244H83.3636V20.528C83.3636 21.144 83.5222 21.6247 83.8396 21.97C84.1569 22.306 84.5862 22.474 85.1276 22.474C85.6969 22.474 86.1496 22.292 86.4856 21.928C86.8216 21.564 86.9896 21.0413 86.9896 20.36V16.244H88.9636ZM95.3924 16.146C96.0457 16.146 96.6337 16.3047 97.1564 16.622C97.6791 16.9393 98.0851 17.4013 98.3744 18.008C98.6731 18.6053 98.8224 19.31 98.8224 20.122C98.8224 20.934 98.6731 21.6433 98.3744 22.25C98.0851 22.8473 97.6791 23.3047 97.1564 23.622C96.6337 23.9393 96.0457 24.098 95.3924 24.098C94.7391 24.098 94.1791 23.944 93.7124 23.636C93.2551 23.3187 92.9284 22.8987 92.7324 22.376V24H90.7584V13.64H92.7324V17.854C92.9284 17.3313 93.2551 16.916 93.7124 16.608C94.1791 16.3 94.7391 16.146 95.3924 16.146ZM94.7764 17.868C94.1791 17.868 93.6844 18.0733 93.2924 18.484C92.9097 18.8853 92.7184 19.4313 92.7184 20.122C92.7184 20.8033 92.9097 21.3493 93.2924 21.76C93.6844 22.1613 94.1791 22.362 94.7764 22.362C95.3924 22.362 95.8871 22.166 96.2604 21.774C96.6337 21.3727 96.8204 20.822 96.8204 20.122C96.8204 19.422 96.6337 18.8713 96.2604 18.47C95.8871 18.0687 95.3924 17.868 94.7764 17.868Z" fill="#D9D9D9"/>
</svg>
