<svg width="22" height="21" viewBox="0 0 22 21" fill="none" xmlns="http://www.w3.org/2000/svg">
    <path fill-rule="evenodd" clip-rule="evenodd" d="M11.0087 -4.3869e-05C5.21973 -4.3869e-05 0.539948 4.81246 0.539948 10.7662C0.539948 15.5253 3.53845 19.5538 7.69816 20.9796C8.21823 21.0868 8.40873 20.748 8.40873 20.4629C8.40873 20.2133 8.39159 19.3578 8.39159 18.4664C5.47945 19.1082 4.87302 17.183 4.87302 17.183C4.40502 15.9352 3.71159 15.6146 3.71159 15.6146C2.75845 14.955 3.78102 14.955 3.78102 14.955C4.8383 15.0263 5.39309 16.0601 5.39309 16.0601C6.32888 17.6999 7.8368 17.2366 8.44345 16.9513C8.53002 16.2561 8.80752 15.7749 9.10216 15.5076C6.77952 15.258 4.3358 14.3311 4.3358 10.1957C4.3358 9.01924 4.75152 8.05674 5.41023 7.30818C5.3063 7.04086 4.94223 5.93552 5.51438 4.45611C5.51438 4.45611 6.3983 4.17086 8.39138 5.56124C9.24468 5.32557 10.1247 5.20568 11.0087 5.20468C11.8926 5.20468 12.7937 5.32958 13.6257 5.56124C15.619 4.17086 16.5029 4.45611 16.5029 4.45611C17.0751 5.93552 16.7108 7.04086 16.6069 7.30818C17.2829 8.05674 17.6815 9.01924 17.6815 10.1957C17.6815 14.3311 15.2378 15.2401 12.8978 15.5076C13.2792 15.8462 13.6084 16.4878 13.6084 17.5039C13.6084 18.9476 13.5912 20.1064 13.5912 20.4627C13.5912 20.748 13.7819 21.0868 14.3018 20.9798C18.4615 19.5536 21.46 15.5253 21.46 10.7662C21.4772 4.81246 16.7802 -4.3869e-05 11.0087 -4.3869e-05Z" fill="#F5E7DA"/>
</svg>