<svg width="121" height="39" viewBox="0 0 121 39" fill="none" xmlns="http://www.w3.org/2000/svg">
<rect width="121" height="39" rx="8" fill="#994C09"/>
<path d="M34.0409 26.5413H31.0776V21.9004C31.0776 20.7937 31.0578 19.3691 29.5363 19.3691C27.9929 19.3691 27.7567 20.5749 27.7567 21.8198V26.541H24.7934V16.9974H27.6382V18.3017H27.678C28.2581 17.3098 29.3367 16.7174 30.4849 16.7601C33.4884 16.7601 34.0422 18.7357 34.0422 21.3059L34.0409 26.5413ZM21.4497 15.6929C20.4999 15.6931 19.7299 14.9233 19.7297 13.9735C19.7295 13.0237 20.4993 12.2536 21.4491 12.2535C22.3988 12.2533 23.1689 13.0231 23.1691 13.9729C23.1691 14.429 22.988 14.8664 22.6656 15.189C22.3432 15.5116 21.9058 15.6928 21.4497 15.6929ZM22.9314 26.5413H19.9649V16.9974H22.9314V26.5413ZM35.5183 9.50149H18.4758C17.6704 9.4924 17.0098 10.1376 17 10.9431V28.0566C17.0095 28.8625 17.67 29.5083 18.4758 29.4999H35.5183C36.3258 29.5099 36.9888 28.8641 37 28.0566V10.9418C36.9885 10.1348 36.3254 9.48961 35.5183 9.50013" fill="white"/>
<path d="M48.0507 22.488H51.3687V24H46.0767V14.116H48.0507V22.488ZM52.3195 14.018C52.3195 13.7007 52.4315 13.444 52.6555 13.248C52.8795 13.0427 53.1735 12.94 53.5375 12.94C53.9015 12.94 54.1955 13.0427 54.4195 13.248C54.6435 13.444 54.7555 13.7007 54.7555 14.018C54.7555 14.326 54.6435 14.5827 54.4195 14.788C54.1955 14.984 53.9015 15.082 53.5375 15.082C53.1735 15.082 52.8795 14.984 52.6555 14.788C52.4315 14.5827 52.3195 14.326 52.3195 14.018ZM54.5175 16.244V24H52.5435V16.244H54.5175ZM60.9232 16.132C61.8192 16.132 62.5332 16.426 63.0652 17.014C63.5972 17.602 63.8632 18.428 63.8632 19.492V24H61.9032V19.716C61.9032 19.1 61.7446 18.624 61.4272 18.288C61.1099 17.9427 60.6759 17.77 60.1252 17.77C59.5652 17.77 59.1172 17.952 58.7812 18.316C58.4452 18.68 58.2772 19.2027 58.2772 19.884V24H56.3032V16.244H58.2772V17.798C58.4826 17.2753 58.8186 16.8693 59.2852 16.58C59.7612 16.2813 60.3072 16.132 60.9232 16.132ZM70.1361 24L67.5741 20.612V24H65.6001V13.64H67.5741V19.464L70.1221 16.244H72.4601L69.1981 20.108L72.5441 24H70.1361ZM80.7964 19.828C80.7964 20.024 80.7731 20.248 80.7264 20.5H75.0424C75.0704 21.1907 75.2571 21.6993 75.6024 22.026C75.9478 22.3527 76.3771 22.516 76.8904 22.516C77.3478 22.516 77.7258 22.404 78.0244 22.18C78.3324 21.956 78.5284 21.6527 78.6124 21.27H80.6984C80.5958 21.8113 80.3764 22.2967 80.0404 22.726C79.7044 23.1553 79.2704 23.4913 78.7384 23.734C78.2158 23.9767 77.6324 24.098 76.9884 24.098C76.2324 24.098 75.5604 23.9393 74.9724 23.622C74.3844 23.2953 73.9271 22.8333 73.6004 22.236C73.2738 21.6387 73.1104 20.934 73.1104 20.122C73.1104 19.31 73.2738 18.6053 73.6004 18.008C73.9271 17.4013 74.3844 16.9393 74.9724 16.622C75.5604 16.3047 76.2324 16.146 76.9884 16.146C77.7538 16.146 78.4211 16.3047 78.9904 16.622C79.5691 16.9393 80.0124 17.378 80.3204 17.938C80.6378 18.4887 80.7964 19.1187 80.7964 19.828ZM78.8084 19.632C78.8364 18.9973 78.6684 18.5167 78.3044 18.19C77.9498 17.8633 77.5111 17.7 76.9884 17.7C76.4564 17.7 76.0084 17.8633 75.6444 18.19C75.2804 18.5167 75.0798 18.9973 75.0424 19.632H78.8084ZM85.2358 16.146C85.8891 16.146 86.4444 16.3 86.9018 16.608C87.3684 16.916 87.7044 17.3313 87.9098 17.854V13.64H89.8698V24H87.9098V22.376C87.7044 22.8987 87.3684 23.3187 86.9018 23.636C86.4444 23.944 85.8891 24.098 85.2358 24.098C84.5824 24.098 83.9944 23.9393 83.4718 23.622C82.9491 23.3047 82.5384 22.8473 82.2398 22.25C81.9504 21.6433 81.8058 20.934 81.8058 20.122C81.8058 19.31 81.9504 18.6053 82.2398 18.008C82.5384 17.4013 82.9491 16.9393 83.4718 16.622C83.9944 16.3047 84.5824 16.146 85.2358 16.146ZM85.8518 17.868C85.2358 17.868 84.7411 18.0687 84.3678 18.47C83.9944 18.8713 83.8078 19.422 83.8078 20.122C83.8078 20.822 83.9944 21.3727 84.3678 21.774C84.7411 22.166 85.2358 22.362 85.8518 22.362C86.4491 22.362 86.9391 22.1613 87.3218 21.76C87.7138 21.3493 87.9098 20.8033 87.9098 20.122C87.9098 19.4313 87.7138 18.8853 87.3218 18.484C86.9391 18.0733 86.4491 17.868 85.8518 17.868ZM93.6327 14.116V24H91.6587V14.116H93.6327ZM100.038 16.132C100.934 16.132 101.648 16.426 102.18 17.014C102.712 17.602 102.978 18.428 102.978 19.492V24H101.018V19.716C101.018 19.1 100.86 18.624 100.542 18.288C100.225 17.9427 99.7911 17.77 99.2405 17.77C98.6805 17.77 98.2325 17.952 97.8965 18.316C97.5605 18.68 97.3925 19.2027 97.3925 19.884V24H95.4185V16.244H97.3925V17.798C97.5978 17.2753 97.9338 16.8693 98.4005 16.58C98.8765 16.2813 99.4225 16.132 100.038 16.132Z" fill="#D9D9D9"/>
</svg>
