<svg width="20" height="21" viewBox="0 0 20 21" fill="none" xmlns="http://www.w3.org/2000/svg">
    <path d="M17.0409 17.5413H14.0776V12.9004C14.0776 11.7937 14.0578 10.3691 12.5363 10.3691C10.9929 10.3691 10.7567 11.5749 10.7567 12.8198V17.541H7.79337V7.99745H10.6382V9.30167H10.678C11.2581 8.30983 12.3367 7.71744 13.4849 7.76007C16.4884 7.76007 17.0422 9.73569 17.0422 12.3059L17.0409 17.5413ZM4.44969 6.69292C3.49994 6.69309 2.72987 5.92328 2.7297 4.97351C2.72953 4.02373 3.49932 3.25365 4.44907 3.25348C5.39883 3.25331 6.1689 4.02311 6.16907 4.97289C6.16915 5.42899 5.98805 5.86644 5.6656 6.18901C5.34316 6.51157 4.90578 6.69284 4.44969 6.69292ZM5.93138 17.5413H2.96492V7.99745H5.93138V17.5413ZM18.5183 0.501491H1.47582C0.670359 0.492401 0.00983024 1.13761 0 1.94308V19.0566C0.00949368 19.8625 0.669969 20.5083 1.47582 20.4999H18.5183C19.3258 20.5099 19.9888 19.8641 20 19.0566V1.94185C19.9885 1.13478 19.3254 0.489612 18.5183 0.500127" fill="#F5E7DA"/>
</svg>